<?xml version="1.0" encoding="UTF-8" standalone="no"?>
<!-- Created with Inkscape (http://www.inkscape.org/) -->

<svg
   width="199.88554mm"
   height="7.7674179mm"
   viewBox="0 0 199.88554 7.7674179"
   version="1.1"
   id="svg1"
   xmlns:inkscape="http://www.inkscape.org/namespaces/inkscape"
   xmlns:sodipodi="http://sodipodi.sourceforge.net/DTD/sodipodi-0.dtd"
   xmlns="http://www.w3.org/2000/svg"
   xmlns:svg="http://www.w3.org/2000/svg">
  <sodipodi:namedview
     id="namedview1"
     pagecolor="#ffffff"
     bordercolor="#000000"
     borderopacity="0.25"
     inkscape:showpageshadow="2"
     inkscape:pageopacity="0.0"
     inkscape:pagecheckerboard="0"
     inkscape:deskcolor="#d1d1d1"
     inkscape:document-units="mm" />
  <defs
     id="defs1" />
  <g
     inkscape:label="Layer 1"
     inkscape:groupmode="layer"
     id="layer1"
     transform="translate(-3.3783584,-19.654977)">
    <path
       style="fill:none;stroke:#000000;stroke-width:0.257862;stroke-dasharray:none"
       d="m 3.3867524,19.783636 c 0,0 67.1110916,4.378569 100.7173376,4.424505 33.07985,0.04521 99.15179,-4.084159 99.15179,-4.084159 v 0"
       id="path1"
       sodipodi:nodetypes="cscc" />
    <path
       style="fill:none;stroke:#000000;stroke-width:0.257862;stroke-dasharray:none"
       d="m 3.4739506,19.789338 c 0,0 7.4113154,3.858991 11.9331424,4.374488 5.229297,0.596148 14.2893,-2.674319 14.2893,-2.674319 0,0 9.096902,3.237716 13.940243,3.618477 5.484307,0.43115 15.200524,-2.124351 15.200524,-2.124351 0,0 11.974599,3.459837 18.095857,3.77662 7.091302,0.366982 20.026087,-2.596427 20.026087,-2.596427 0,0 8.571816,2.959888 12.992896,3.121497 5.40334,0.197519 13.86337,-3.284742 13.86337,-3.284742 0,0 14.0328,2.155202 20.9168,1.815514 5.97049,-0.294605 16.48131,-3.21409 16.48131,-3.21409 0,0 8.45072,2.574073 12.71334,2.269938 3.91157,-0.279085 9.94875,-3.522922 9.94875,-3.522922 0,0 6.88458,3.697947 11.20713,2.958253 3.41764,-0.584835 8.00266,-4.100985 8.00266,-4.100985"
       id="path2"
       sodipodi:nodetypes="cscscscscscscsc" />
  </g>
</svg>
