<?xml version="1.0" encoding="UTF-8" standalone="no"?>
<svg
   width="131.04399mm"
   height="62.663166mm"
   viewBox="0 0 131.04399 62.663166"
   version="1.1"
   id="svg1"
   xml:space="preserve"
   sodipodi:docname="leashandring.svg"
   inkscape:export-filename="leashandring.png"
   inkscape:export-xdpi="96"
   inkscape:export-ydpi="96"
   inkscape:version="1.3.2 (091e20e, 2023-11-25)"
   xmlns:inkscape="http://www.inkscape.org/namespaces/inkscape"
   xmlns:sodipodi="http://sodipodi.sourceforge.net/DTD/sodipodi-0.dtd"
   xmlns="http://www.w3.org/2000/svg"
   xmlns:svg="http://www.w3.org/2000/svg"><sodipodi:namedview
     id="namedview1"
     pagecolor="#ffffff"
     bordercolor="#000000"
     borderopacity="0.25"
     inkscape:showpageshadow="2"
     inkscape:pageopacity="0.0"
     inkscape:pagecheckerboard="0"
     inkscape:deskcolor="#d1d1d1"
     inkscape:document-units="mm"
     inkscape:zoom="1.6943896"
     inkscape:cx="302.17372"
     inkscape:cy="130.72555"
     inkscape:window-width="1512"
     inkscape:window-height="806"
     inkscape:window-x="0"
     inkscape:window-y="38"
     inkscape:window-maximized="0"
     inkscape:current-layer="svg1" /><defs
     id="defs1" /><g
     id="layer1"
     transform="translate(-41.594899,-141.12971)"
     style="stroke-width:0.5;stroke-dasharray:none"><path
       style="fill:none;stroke:#030303;stroke-width:0.5;stroke-dasharray:none;stroke-opacity:0.985944"
       id="path3"
       d="m 171.88181,-96.522196 c 12.2261,0.247776 23.07278,10.32689 23.78691,22.53463 0.71413,12.207739 -8.07818,22.912556 -20.192,24.58417 -12.11382,1.671617 -23.47671,-6.251942 -26.09546,-18.196863 -2.61875,-11.944917 4.38701,-23.895534 16.08909,-27.445212"
       transform="rotate(90)"
       sodipodi:nodetypes="csssc" /><path
       style="fill:none;stroke:#030303;stroke-width:0.5;stroke-dasharray:none;stroke-opacity:0.985944"
       id="path3-6"
       d="m 173.09296,-103.98235 c 16.18354,0.82917 29.89776,14.378489 30.14774,30.58133 0.24998,16.202839 -12.10497,29.824793 -28.25523,31.152813 -16.15026,1.328023 -30.56444,-10.092725 -32.96462,-26.118753 -2.40018,-16.026029 8.27824,-31.249351 24.10894,-34.71103"
       transform="rotate(90)"
       sodipodi:nodetypes="csssc" /><path
       style="fill:none;stroke:#030303;stroke-width:0.5;stroke-dasharray:none;stroke-opacity:0.985944"
       d="m 109.13038,180.48898 c 0,0 0.0871,3.41461 0.17337,4.63113 0.13825,1.95277 0.17876,1.32116 0.18927,2.91578 0.17712,0.23137 -1.8772,-0.49722 -4.68773,-1.13959 -0.714,-0.15703 -4.00782,-1.25141 -4.00782,-1.25141 0,0 0.0933,-0.74595 0.60164,-1.62683 0.55257,-0.95762 0.45446,-1.25393 0.89591,-2.25613 0.41972,-0.95286 0.81149,-2.57428 0.81149,-2.57428 0,0 4.01966,0.83183 5.1092,1.12488 z"
       id="path4"
       sodipodi:nodetypes="ccccccsccc" /><path
       style="fill:none;stroke:#030303;stroke-width:0.5;stroke-dasharray:none;stroke-opacity:0.985944"
       d="m 110.31529,171.68773 -0.39284,2.6956 c -1.47904,-0.43192 -4.22323,-0.98115 -5.73403,-1.30911 -2.05808,-0.44677 -4.348029,-0.67667 -6.418559,-1.07272 -1.17259,-0.22428 -1.900447,-0.20132 -3.098497,-0.19037 -0.9021,0.008 -1.337181,0.34352 -2.058281,0.83799 -0.5658,0.38795 -0.884262,1.00698 -0.875242,1.65253 0.009,0.61608 0.201319,1.54816 0.697719,1.96606 0.77433,0.65188 0.946926,0.56483 1.937056,0.89377 0.78848,0.26196 1.406132,0.14737 1.406132,0.14737 0,0 -0.336538,1.3342 -0.610428,2.22712 -0.259358,0.84555 -0.579409,1.53446 -1.060899,2.2863 -0.44272,0.69132 -1.152558,1.84107 -1.152558,1.84107 0,0 -1.247707,-0.51121 -2.354347,-1.04364 -0.84437,-0.40625 -2.71581,-1.56521 -3.440763,-2.14938 -1.109365,-0.89394 -1.773568,-2.45912 -2.309879,-3.80513 -0.474728,-1.19145 -0.570545,-2.25807 -0.465455,-3.53029 0.0786,-0.95192 1.065687,-2.8006 1.617125,-3.58854 1.01126,-1.44499 2.489309,-2.43281 3.90191,-2.89722 3.998692,-1.31461 3.533037,-0.95516 7.500567,-0.94001 0.580789,0.002 5.041749,0.32442 6.213769,0.52924 1.17725,0.20572 3.27098,0.40876 4.4241,0.70729 2.22378,0.57572 1.35943,0.50919 3.58515,1.07866 z"
       id="path5"
       sodipodi:nodetypes="ccsscccsscsscsssccsccscc" /><path
       style="fill:none;stroke:#030303;stroke-width:0.5;stroke-dasharray:none;stroke-opacity:0.985944"
       d="m 122.52899,164.54918 c -0.29434,-1.05619 -1.88359,-0.75323 -3.17633,-0.85473 -0.72041,-0.0566 -1.44618,0.0116 -2.16446,0.0976 -0.8396,0.10056 -1.68544,0.21836 -2.49746,0.48801 -0.77841,0.25849 -1.60961,1.39423 -1.60961,1.39423 l -1.18921,1.96132 c -0.27289,0.74779 -1.17454,2.87263 -1.347,3.66045 -0.44109,2.01493 -0.99119,5.07711 -1.01717,5.35514 -0.11878,1.27161 -0.25856,2.58837 -0.36982,3.86092 -0.11067,1.26595 0.13144,3.18713 0.12165,4.45965 -0.004,0.55401 0.021,1.11003 0.0832,1.65924 0.0896,0.79064 0.0293,1.20318 0.38512,1.90682 0.5661,1.11962 0.88763,1.53119 1.61769,2.25937 0.85258,0.44606 1.3816,0.94588 2.9417,0.80708 0.33318,-0.0297 1.43407,-0.23375 1.53037,-0.60889 0.28277,-1.10145 -0.3633,-1.75214 -0.42197,-2.90034 -0.0403,-2.58689 0.0189,-5.16378 0.38988,-7.71059 0.27056,-1.64255 0.67348,-3.86508 1.10856,-5.45831 0.42896,-1.57078 0.89951,-3.04688 1.52693,-4.52307 0.50516,-1.18855 1.05118,-2.24092 1.74822,-3.28761 0.41057,-0.61651 0.99021,-1.11577 1.47002,-1.65924 0,0 0.98213,-0.50355 0.86969,-0.90705 z"
       id="path6"
       sodipodi:nodetypes="cccsccscsccscccccssscc" /><path
       style="fill:none;stroke:#030303;stroke-width:0.5;stroke-dasharray:none;stroke-opacity:0.985944"
       d="m 119.68139,192.14732 c -0.70641,-0.20137 -1.17679,-0.2415 -1.85281,-0.52883 -0.4017,-0.17074 -1.15643,-0.64261 -1.4197,-0.99076 -0.59616,-0.78836 -0.65787,-1.9393 -0.69622,-2.92695 -0.0493,-1.26913 -0.18138,-2.42705 -0.016,-3.68632 0.17448,-1.32822 0.0575,-2.88904 0.35864,-4.19438 0.28338,-1.22821 0.41913,-2.35044 0.78003,-3.55805 0.30113,-1.00672 0.4722,-2.26988 0.82103,-3.26109 0.33812,-0.96078 0.81031,-2.34168 1.24125,-3.26456 0.25466,-0.54535 1.07516,-1.96087 1.42445,-2.45103 0.97206,-1.38941 1.65362,-2.03564 3.31511,-2.72079 2.67331,-0.89297 4.18476,-1.78221 6.86029,0.51071 0.73838,0.63279 -0.53458,1.67654 -1.17562,2.40777 -0.67703,0.77229 -0.87318,1.21258 -1.52662,2.00492 -0.69458,0.84222 -1.52537,2.0523 -2.07406,2.99608 -0.6056,1.04167 -1.8672,2.32234 -2.24325,3.46707 -0.39724,1.20925 -0.8967,3.13812 -1.11114,4.39276 -0.24579,1.43804 -0.59453,3.18135 -0.61923,4.64003 -0.68476,2.69785 1.18154,7.71699 -2.06615,7.16342 z"
       id="path7"
       sodipodi:nodetypes="cssccscssccsssssscc" /><path
       style="fill:none;stroke:#030303;stroke-width:0.5;stroke-dasharray:none;stroke-opacity:0.985944"
       d="m 125.38908,172.78724 2.02976,-3.09503 2.77396,-3.29383 c 0,0 0.18154,-0.57687 1.4078,-0.89495 1.77755,-0.46108 5.68758,0.63182 9.05477,3.18251 0.54273,0.41113 1.54346,2.33732 1.54346,2.33732 0,0 -1.39517,0.48783 -2.22393,0.84923 -0.90477,0.39454 -1.94273,0.50535 -2.77262,1.03973 -0.82418,0.5307 -1.6553,1.63547 -2.46934,2.41736 -0.5153,0.49494 -1.68959,0.18197 -1.68959,0.18197 z"
       id="path8"
       sodipodi:nodetypes="cccsscssscc" /><path
       style="fill:none;stroke:#030303;stroke-width:0.5;stroke-dasharray:none;stroke-opacity:0.985944"
       d="m 139.60976,180.9991 8.33642,-4.62116 c 0,0 -0.20488,-1.54092 -0.72752,-2.44158 -0.51864,-0.89371 -1.56004,-1.50661 -2.52915,-1.8651 -0.89348,-0.33052 -2.11525,-0.89198 -2.11525,-0.89198 0,0 -2.77899,0.90552 -4.15893,1.38631 -0.63845,0.22245 -0.68948,0.074 -1.24416,0.46056 -0.80702,0.56243 -2.56819,2.48535 -2.56819,2.48535 l -0.34658,0.51987 3.46578,3.11919 z"
       id="path9"
       sodipodi:nodetypes="cccscsscccc" /><path
       style="fill:none;stroke:#030303;stroke-width:0.5;stroke-dasharray:none;stroke-opacity:0.985944"
       d="m 139.85962,181.13757 c 0,0 4.85555,-2.71332 6.79831,-3.56382 1.8909,-0.8278 1.54884,-1.01865 3.58779,-1.34027 1.25526,-0.198 4.51476,-0.79848 5.78522,-0.76958 1.27177,0.0289 2.5154,0.27423 3.69886,0.74075 1.90601,0.75134 3.39878,2.38598 4.6788,3.98564 0.77487,0.96836 1.40811,2.09554 1.73288,3.29249 0.33311,1.2277 0.17329,3.81234 0.17329,3.81234 0,0 -2.69752,-1.06999 -3.98564,-1.73288 -0.59896,-0.30824 -1.3836,-0.56002 -2.03278,-0.73983 -0.835,-0.23128 -1.88801,-0.29443 -2.74928,-0.19993 -1.05874,0.11622 -1.64438,0.30358 -2.66935,0.59318 -1.70516,0.48178 -3.34729,1.1639 -5.02537,1.73289 -1.03793,0.35193 -3.56383,1.20142 -3.56383,1.20142 z"
       id="path10"
       sodipodi:nodetypes="csscssscsscsscc" /><path
       style="fill:none;stroke:#030303;stroke-width:0.5;stroke-dasharray:none;stroke-opacity:0.985944"
       d="m 160.35543,194.11199 c 0,0 -3.72673,2.28062 -5.82428,2.71401 -1.98069,0.40925 -4.05936,0.0867 -6.06511,-0.17329 -1.76467,-0.22873 -3.56572,-0.50598 -5.19866,-1.21302 -1.14672,-0.49652 -3.11919,-2.07946 -3.11919,-2.07946 l -3.29249,-3.63906 -3.46577,-4.15893 -2.87802,-2.03743 -5.57586,-3.25842 -2.29001,-1.28912 1.0624,-3.6083 1.69562,-2.58475 4.86668,1.68755 3.81235,1.73288 3.98563,3.29249 3.63907,3.81235 3.46577,3.98563 1.90617,1.73289 2.59933,1.5596 4.15893,1.5596 2.1763,-0.0293 z"
       id="path11"
       sodipodi:nodetypes="cssscccccccccccccccccc" /><path
       style="fill:none;stroke:#030303;stroke-width:0.5;stroke-dasharray:none;stroke-opacity:0.985944"
       d="m 140.14819,193.53352 c 0,0 -2.90525,0.0557 -4.33222,-0.17329 -1.66083,-0.26656 -3.3038,-0.72888 -4.85208,-1.38631 -1.16728,-0.49565 -2.20415,-1.25521 -3.29248,-1.90618 -1.98102,-1.18492 -5.89182,-3.63906 -5.89182,-3.63906 l 0.0609,-3.45636 0.39807,-2.66245 0.41689,-1.32319 c 0,0 2.70897,1.54432 4.14951,2.41663 2.08461,1.26232 4.40384,2.20814 6.23839,3.81235 1.79285,1.56775 2.93916,3.75117 4.50551,5.54524 0.83317,0.95431 2.59933,2.77262 2.59933,2.77262 z"
       id="path12" /><path
       style="fill:none;stroke:#030303;stroke-width:0.5;stroke-dasharray:none;stroke-opacity:0.985944"
       d="m 136.47875,193.4927 c 0,0 -3.4992,1.25749 -5.52472,1.10075 -3.13226,-0.24238 -3.99766,-0.0754 -5.42322,-0.60139 -1.33843,-0.49385 -4.13047,-1.79559 -4.13047,-1.79559 l 0.39806,-5.80987 c 0,0 3.05119,2.43323 4.89418,3.53831 1.37378,0.82373 2.83966,1.49801 4.33221,2.07946 1.29399,0.5041 5.45396,1.48833 5.45396,1.48833 z"
       id="path13"
       sodipodi:nodetypes="cssccssc" /><path
       style="fill:none;stroke:#030303;stroke-width:0.5;stroke-dasharray:none;stroke-opacity:0.985944"
       d="m 146.47974,188.17472 c 0,0 0.81885,0.91913 2.05626,1.7378 1.2374,0.81866 4.06911,1.82606 5.06498,1.98354 1.77031,0.27996 1.58871,-0.18442 2.40507,0.2278 1.50589,0.76039 3.24396,1.34859 4.75241,2.10388 2.69269,1.34824 8.03759,4.12456 8.03759,4.12456 l 3.17274,-7.2973 c 0,0 -3.82311,-2.42308 -5.81668,-3.49001 -1.3069,-0.69943 -2.658,-1.31594 -4.0188,-1.90364 -0.79932,-0.34521 -1.57685,-0.79038 -2.43243,-0.95182 -0.55426,-0.10458 -1.13199,-0.0663 -1.69213,0 -0.90006,0.10649 -1.76661,0.40709 -2.64395,0.63454 -2.16092,0.56022 -8.88506,2.83065 -8.88506,2.83065 z"
       id="path14"
       sodipodi:nodetypes="cssssccssscsc" /><path
       style="fill:none;stroke:#030303;stroke-width:0.5;stroke-dasharray:none;stroke-opacity:0.985944"
       d="m 113.32923,165.4284 -3.78661,-1.94612 h -0.71889 l -0.58196,0.27386 -1.12969,2.99354"
       id="path15"
       sodipodi:nodetypes="ccccc" /></g></svg>
