<?xml version="1.0" encoding="UTF-8" standalone="no"?>

<svg
   width="296.99997mm"
   height="210.00002mm"
   viewBox="0 0 296.99997 210.00002"
   version="1.1"
   id="svg1"
   xml:space="preserve"
   xmlns="http://www.w3.org/2000/svg"
   xmlns:svg="http://www.w3.org/2000/svg"><defs
     id="defs1" /><g
     id="layer1"
     transform="translate(-3.0789566,-40.771727)"><ellipse
       id="path1"
       cx="227.53017"
       cy="100.95352"
       rx="9.8940001"
       ry="9.8938704" /><ellipse
       id="path1-8"
       cx="165.14745"
       cy="73.36985"
       rx="8.1157284"
       ry="8.1156216" /><ellipse
       id="path1-8-6"
       cx="260.85049"
       cy="74.679367"
       rx="8.1157284"
       ry="8.1156216" /><ellipse
       id="path1-0"
       cx="202.14981"
       cy="155.44202"
       rx="9.8940001"
       ry="9.8938704" /><ellipse
       id="path1-4"
       cx="131.35939"
       cy="99.791794"
       rx="9.8940001"
       ry="9.8938704" /><ellipse
       id="path1-4-7"
       cx="106.18882"
       cy="152.91266"
       rx="9.8940001"
       ry="9.8938704" /><ellipse
       id="path2"
       cx="38.992268"
       cy="112.78754"
       rx="20.770348"
       ry="13.841971" /><path
       id="path3"
       d="m 223.57122,138.8216 a 11.219974,11.219973 0 0 1 13.67701,3.73861 11.219974,11.219973 0 0 1 -0.90573,14.14982 11.219974,11.219973 0 0 1 -14.04205,1.96434" /><path
       id="path3-0"
       d="m 226.91295,131.89821 a 19.074158,17.566761 0 0 1 18.48649,10.63009 19.074158,17.566761 0 0 1 -4.40465,19.65736 19.074158,17.566761 0 0 1 -21.54548,3.02183" /><path
       d="m 172.74017,70.568319 c -0.60426,-0.622171 -0.72497,-1.597029 -1.273,-2.269257 -0.69419,-0.851508 -1.54445,-1.600267 -2.49064,-2.158561 -0.82945,-0.489415 -1.76203,-0.838153 -2.71204,-0.996257 -0.81915,-0.136326 -1.67158,-0.08152 -2.49064,0.05535 -0.89776,0.15002 -1.80275,0.393501 -2.60135,0.830217 -0.73575,0.402349 -1.36782,0.989405 -1.93717,1.605082 -0.67419,0.729056 -1.25671,1.554773 -1.71577,2.435299 -0.5261,1.009129 -0.81408,2.126719 -1.16231,3.210168 -0.41642,1.295596 -0.80383,2.603 -1.10695,3.929685 -0.28375,1.241929 -0.5614,2.493865 -0.66417,3.763645 -0.11313,1.397692 -5.7e-4,2.805276 0.0553,4.206425 0.0442,1.10853 0.092,2.219024 0.22139,3.320862 0.16805,1.430861 0.59919,2.826112 0.71953,4.261773 0.14486,1.728168 0.16778,3.476592 0,5.202685 -0.19463,2.002288 -0.58919,3.993835 -1.16231,5.922195 -0.56121,1.88829 -1.30128,3.73366 -2.21391,5.47943 -0.82736,1.58265 -1.80715,3.09723 -2.93342,4.48316 -1.00373,1.23515 -2.15639,2.35391 -3.37621,3.37621 -1.08658,0.91063 -2.30705,1.64927 -3.48691,2.4353 -1.1458,0.76334 -2.3552,1.42982 -3.4869,2.21391 -1.15861,0.80274 -2.32989,1.60155 -3.37621,2.54599 -1.04659,0.94469 -1.99569,1.99984 -2.87808,3.09947 -0.99609,1.24132 -1.92835,2.54445 -2.71204,3.92969 -0.74808,1.32229 -1.3603,2.72416 -1.88182,4.15107 -0.55937,1.53048 -0.99607,3.1093 -1.32835,4.70456 -0.2506,1.2031 -0.43024,2.42591 -0.49812,3.65295 -0.0815,1.47414 0.0489,2.95271 0.11069,4.42781 0.0658,1.56952 0.3043,3.1339 0.27674,4.70456 -0.0276,1.57487 -0.0707,3.17401 -0.44278,4.70455 -0.31479,1.29498 -0.88446,2.52337 -1.49439,3.7083 -0.69099,1.34239 -1.49003,2.64173 -2.4353,3.81899 -0.99646,1.24102 -2.11868,2.40066 -3.37621,3.37621 -1.2025,0.93286 -2.55213,1.67763 -3.92969,2.3246 -1.18846,0.55816 -2.42714,1.04086 -3.70829,1.32835 -1.66405,0.37341 -3.38656,0.49433 -5.09199,0.49813 -1.3897,0.003 -2.80181,-0.0546 -4.15108,-0.38744 -1.64657,-0.40615 -3.210329,-1.13501 -4.704552,-1.93717 -1.334496,-0.71641 -2.595564,-1.58178 -3.763645,-2.54599 -1.167041,-0.96336 -2.302011,-1.99968 -3.210166,-3.21017 -1.03561,-1.38038 -1.839317,-2.94048 -2.490647,-4.53851 -0.621735,-1.52542 -1.06368,-3.13404 -1.328343,-4.7599 -0.234473,-1.4404 -0.363011,-2.92 -0.221393,-4.37247 0.155017,-1.58989 0.658998,-3.13314 1.162301,-4.64921 0.346532,-1.04384 0.793918,-2.05408 1.272998,-3.04412 0.431641,-0.892 0.870208,-1.78992 1.43904,-2.60134 0.773097,-1.1028 1.628313,-2.17447 2.656691,-3.04412 0.942275,-0.79684 2.115446,-1.27193 3.154818,-1.93717 1.232587,-0.7889 2.460789,-1.58654 3.652948,-2.4353 1.01901,-0.72548 2.03752,-1.45697 2.98878,-2.26926 0.93276,-0.7965 1.85538,-1.61736 2.65669,-2.54599 0.91633,-1.06193 1.69661,-2.2392 2.43529,-3.43156 1.06935,-1.72611 2.13061,-3.48081 2.87809,-5.36873 0.68204,-1.72264 1.05313,-3.55661 1.43904,-5.36872 0.34242,-1.60789 0.74144,-3.22699 0.77486,-4.8706 0.0321,-1.57867 -0.32803,-3.14173 -0.55347,-4.70455 -0.20309,-1.40794 -0.59918,-2.78902 -0.71953,-4.20643 -0.11707,-1.378731 -0.15657,-2.776271 0,-4.151076 0.16712,-1.467375 0.49235,-2.928888 0.99626,-4.317119 0.47296,-1.302966 1.13474,-2.5407 1.88183,-3.708296 0.78578,-1.228077 1.71821,-2.364811 2.71203,-3.431556 0.97031,-1.041509 2.13188,-1.88821 3.15482,-2.878082 0.72193,-0.698591 1.46004,-1.386851 2.10321,-2.158561 0.89801,-1.077471 1.70062,-2.236728 2.4353,-3.431556 0.99421,-1.616916 1.90363,-3.294299 2.6567,-5.036642 0.78933,-1.826244 1.34522,-3.746041 1.93716,-5.645465 0.64995,-2.085572 1.05956,-4.244276 1.77113,-6.309638 0.4743,-1.376674 0.98618,-2.749809 1.66043,-4.04038 0.63034,-1.206513 1.40266,-2.338453 2.21391,-3.431559 0.76445,-1.030045 1.61015,-2.000644 2.49065,-2.933427 0.75243,-0.797103 1.53958,-1.56548 2.37995,-2.269258 1.0524,-0.881346 2.12991,-1.752696 3.32086,-2.435299 1.29048,-0.739651 2.69118,-1.281574 4.09573,-1.771126 1.6777,-0.584756 3.3916,-1.11158 5.14733,-1.383691 1.62425,-0.251734 3.28569,-0.326784 4.92595,-0.22139 1.49528,0.09608 2.97614,0.403695 4.42781,0.774866 1.00048,0.255808 1.98284,0.592818 2.93343,0.99626 1.29884,0.551241 2.56084,1.199532 3.76365,1.937168 1.1829,0.725428 2.31951,1.535922 3.37621,2.435299 0.91397,0.777896 1.77903,1.622828 2.54599,2.545995 1.00066,1.204466 1.91363,2.495962 2.65669,3.874339 0.67143,1.245499 1.1857,2.578318 1.60508,3.929687 0.38612,1.244193 0.747,2.518921 0.83022,3.81899 0.0958,1.496894 -0.0526,3.021045 -0.38743,4.483164 -0.18507,0.808273 -0.47939,1.601708 -0.88557,2.324603 -0.66343,1.180737 -1.32764,2.516114 -2.49064,3.210168 -0.2891,0.172529 -0.66087,0.19532 -0.99626,0.166042 -0.33134,-0.02892 -0.63997,-0.190461 -0.94091,-0.332087 -0.38934,-0.183227 -0.80713,-0.355498 -1.10692,-0.664174 z"
       id="path4" /><path
       d="m 268.54147,72.098553 c -0.60426,-0.622171 -0.72497,-1.597029 -1.273,-2.269257 -0.69419,-0.851508 -1.54445,-1.600267 -2.49064,-2.158561 -0.82945,-0.489415 -1.76203,-0.838153 -2.71204,-0.996257 -0.81915,-0.136326 -1.67158,-0.08152 -2.49064,0.05535 -0.89776,0.15002 -1.80275,0.393501 -2.60135,0.830217 -0.73575,0.402349 -1.36782,0.989405 -1.93717,1.605082 -0.67419,0.729056 -1.25671,1.554773 -1.71577,2.435299 -0.5261,1.009129 -0.81408,2.126719 -1.16231,3.210168 -0.41642,1.295596 -0.80383,2.603 -1.10695,3.929685 -0.28375,1.241929 -0.5614,2.493865 -0.66417,3.763645 -0.11313,1.397692 -5.7e-4,2.805276 0.0553,4.206425 0.0442,1.10853 0.092,2.219024 0.22139,3.320862 0.16805,1.430858 0.59919,2.826108 0.71953,4.261778 0.14486,1.72816 0.16778,3.47659 0,5.20268 -0.19463,2.002291 -0.58919,3.993841 -1.16231,5.922201 -0.56121,1.88829 -1.30128,3.73366 -2.21391,5.47943 -0.82736,1.58265 -1.80715,3.09723 -2.93342,4.48316 -1.00373,1.23515 -2.15639,2.35391 -3.37621,3.37621 -1.08658,0.91062 -2.30705,1.64926 -3.48691,2.43529 -1.1458,0.76334 -2.3552,1.42983 -3.4869,2.21391 -1.15861,0.80274 -2.32989,1.60155 -3.37621,2.54599 -1.04659,0.94469 -1.99569,1.99984 -2.87808,3.09947 -0.99609,1.24132 -1.92835,2.54445 -2.71204,3.9297 -0.74808,1.32229 -1.3603,2.72416 -1.88182,4.15107 -0.55937,1.53048 -0.99607,3.10929 -1.32835,4.70455 -0.2506,1.2031 -0.43024,2.42591 -0.49812,3.65295 -0.0815,1.47415 0.0489,2.95271 0.11069,4.42781 0.0658,1.56953 0.3043,3.13391 0.27674,4.70456 -0.0276,1.57487 -0.0707,3.17401 -0.44278,4.70455 -0.31479,1.29498 -0.88446,2.52337 -1.49439,3.7083 -0.69099,1.34239 -1.49003,2.64173 -2.4353,3.819 -0.99646,1.24102 -2.11868,2.40065 -3.37621,3.3762 -1.2025,0.93287 -2.55213,1.67763 -3.92969,2.32461 -1.18846,0.55815 -2.42714,1.04086 -3.70829,1.32835 -1.66405,0.37341 -3.38656,0.49432 -5.09199,0.49813 -1.3897,0.003 -2.80181,-0.0546 -4.15108,-0.38744 -1.64657,-0.40615 -3.21033,-1.13501 -4.70455,-1.93718 -1.3345,-0.7164 -2.59557,-1.58178 -3.76365,-2.54598 -1.16704,-0.96336 -2.30201,-1.99969 -3.21017,-3.21017 -1.03561,-1.38038 -1.83931,-2.94049 -2.49064,-4.53851 -0.62174,-1.52542 -1.06368,-3.13404 -1.32835,-4.7599 -0.23447,-1.4404 -0.36301,-2.92 -0.22139,-4.37247 0.15502,-1.58989 0.659,-3.13314 1.1623,-4.64921 0.34653,-1.04384 0.79392,-2.05408 1.273,-3.04412 0.43164,-0.892 0.87021,-1.78992 1.43904,-2.60134 0.7731,-1.1028 1.62831,-2.17447 2.65669,-3.04412 0.94228,-0.79684 2.11545,-1.27193 3.15482,-1.93717 1.23259,-0.7889 2.46079,-1.58654 3.65295,-2.4353 1.01901,-0.72548 2.03752,-1.45698 2.98878,-2.26926 0.93276,-0.79651 1.85538,-1.61736 2.65669,-2.54599 0.91633,-1.06193 1.69661,-2.2392 2.43529,-3.43156 1.06935,-1.72612 2.13061,-3.48081 2.87809,-5.36873 0.68204,-1.72264 1.05313,-3.55661 1.43904,-5.36872 0.34242,-1.60789 0.74144,-3.22699 0.77486,-4.8706 0.0321,-1.57867 -0.32803,-3.14173 -0.55347,-4.70455 -0.20309,-1.40794 -0.59918,-2.78902 -0.71953,-4.20643 -0.11707,-1.37874 -0.15657,-2.776281 0,-4.151081 0.16712,-1.46738 0.49235,-2.92889 0.99626,-4.31712 0.47296,-1.30297 1.13474,-2.5407 1.88183,-3.708296 0.78578,-1.228077 1.71821,-2.364811 2.71203,-3.431556 0.97031,-1.041509 2.13188,-1.88821 3.15482,-2.878082 0.72193,-0.698591 1.46004,-1.386851 2.10321,-2.158561 0.89801,-1.077471 1.70062,-2.236728 2.4353,-3.431556 0.99421,-1.616916 1.90363,-3.294299 2.6567,-5.036642 0.78933,-1.826244 1.34522,-3.746041 1.93716,-5.645465 0.64995,-2.085572 1.05956,-4.244276 1.77113,-6.309638 0.4743,-1.376674 0.98618,-2.749809 1.66043,-4.04038 0.63034,-1.206513 1.40266,-2.338453 2.21391,-3.431559 0.76445,-1.030045 1.61015,-2.000644 2.49065,-2.933427 0.75243,-0.797103 1.53958,-1.56548 2.37995,-2.269258 1.0524,-0.881346 2.12991,-1.752696 3.32086,-2.435299 1.29048,-0.739651 2.69118,-1.281574 4.09573,-1.771126 1.6777,-0.584756 3.3916,-1.11158 5.14733,-1.383691 1.62425,-0.251734 3.28569,-0.326784 4.92595,-0.22139 1.49528,0.09608 2.97614,0.403695 4.42781,0.774866 1.00048,0.255808 1.98284,0.592818 2.93343,0.99626 1.29884,0.551241 2.56084,1.199532 3.76365,1.937168 1.1829,0.725428 2.31951,1.535922 3.37621,2.435299 0.91397,0.777896 1.77903,1.622828 2.54599,2.545995 1.00066,1.204466 1.91363,2.495962 2.65669,3.874339 0.67143,1.245499 1.1857,2.578318 1.60508,3.929687 0.38612,1.244193 0.747,2.518921 0.83022,3.81899 0.0958,1.496894 -0.0526,3.021045 -0.38743,4.483164 -0.18507,0.808273 -0.47939,1.601708 -0.88557,2.324603 -0.66343,1.180737 -1.32764,2.516114 -2.49064,3.210168 -0.2891,0.172529 -0.66087,0.19532 -0.99626,0.166042 -0.33134,-0.02892 -0.63997,-0.190461 -0.94091,-0.332087 -0.38934,-0.183227 -0.80713,-0.355498 -1.10692,-0.664174 z"
       id="path4-4" /><path
       d="m 132.95806,126.57352 c 0,0 3.16523,1.05937 4.7884,1.43652 2.20663,0.51272 4.46649,0.76138 6.70377,1.11729 3.50747,0.55797 7.02702,1.03816 10.53449,1.59614 3.19611,0.50844 6.3792,1.09716 9.57681,1.59613 2.92169,0.45591 5.83231,1.02669 8.77875,1.27691 2.12121,0.18014 4.25817,0.26214 6.38454,0.15962 2.19499,-0.10583 4.38688,-0.3793 6.54415,-0.79807 2.21714,-0.43039 4.32248,-1.34942 6.54416,-1.75575 1.05195,-0.19239 2.1242,-0.26596 3.19227,-0.31923 1.27532,-0.0636 3.83072,0 3.83072,0"
       id="path5" /><path
       d="m 124.97738,160.89042 c 0,0 3.08782,-0.84422 4.62879,-1.2769 1.86457,-0.52354 3.69611,-1.17519 5.58648,-1.59614 1.63071,-0.36313 3.28484,-0.64016 4.94802,-0.79807 1.80163,-0.17105 3.61712,-0.15961 5.42686,-0.15961 1.80974,0 3.61732,0.13301 5.42686,0.15961 2.71313,0.0399 5.42755,-0.0616 8.14028,0 2.34281,0.0532 4.68501,0.1599 7.023,0.31923 1.75891,0.11986 3.53351,0.15903 5.26725,0.47884 1.73926,0.32083 3.4283,0.88173 5.10763,1.43652 1.13527,0.37505 2.2447,0.82561 3.35188,1.27691 1.23565,0.50367 3.67111,1.59614 3.67111,1.59614"
       id="path6" /><path
       d="m 86.35091,148.12134 c 0,0 -3.707228,-2.95612 -5.746085,-4.14995 -2.074729,-1.21484 -4.300078,-2.16984 -6.544154,-3.03266 -2.18336,-0.83947 -4.432282,-1.51628 -6.703767,-2.07497 -1.996292,-0.491 -4.024879,-0.86652 -6.065313,-1.1173 -1.693126,-0.2081 -3.402597,-0.26599 -5.107633,-0.31922 -1.808073,-0.0565 -3.622212,-0.12472 -5.426861,0 -1.929145,0.13333 -3.825977,0.5688 -5.746086,0.79806 -2.12371,0.25357 -4.245778,0.62668 -6.384541,0.63846 -2.403606,0.0132 -4.812331,-0.23935 -7.182607,-0.63846 -2.812193,-0.47352 -5.610866,-1.12537 -8.299903,-2.07497 -2.267029,-0.80057 -4.469425,-1.81782 -6.544155,-3.03266 -2.038858,-1.19383 -4.037729,-2.51787 -5.746086,-4.14995 -1.6702475,-1.59568 -3.150135,-3.42895 -4.3095649,-5.42686 -1.1504765,-1.98248 -1.9998537,-4.16037 -2.5538163,-6.38454 -0.4785379,-1.92134 -0.7437136,-3.92846 -0.6384541,-5.9057 0.1331438,-2.50103 0.6184304,-5.03637 1.5961352,-7.34222 0.8986198,-2.11934 2.2799923,-4.044813 3.8307245,-5.746088 1.9367576,-2.124776 4.2792836,-3.881681 6.7037676,-5.42686 2.147067,-1.368375 4.464876,-2.497765 6.863381,-3.351885 2.419362,-0.861547 4.975423,-1.294426 7.501835,-1.755748 2.798062,-0.510925 5.616414,-1.033801 8.459515,-1.117293 2.932713,-0.08612 5.88389,0.160928 8.778746,0.638452 2.71202,0.447364 5.402758,1.121279 7.980674,2.074977 2.387879,0.883394 4.712369,1.98972 6.863382,3.351884 1.439087,0.911325 2.73577,2.040078 3.990337,3.19227 2.161994,1.985571 3.983848,4.314711 6.065314,6.384541 1.708142,1.6986 3.371302,3.46196 5.267245,4.94802 1.846749,1.4475 3.899126,2.61441 5.905701,3.83072 2.404104,1.45728 4.783834,2.98461 7.342222,4.14995 2.465528,1.12304 5.061056,1.95316 7.661449,2.71343 2.254468,0.65913 4.544378,1.2229 6.863378,1.59614 1.74059,0.28014 5.26725,0.47884 5.26725,0.47884"
       id="path7" /><path
       d="m 275.21053,66.071424 6.75624,0.372234 7.25855,7.25855 0.18614,9.678067 -1.48894,1.302819 -2.41951,-0.372235 -0.55835,-2.791751 -19.26504,-0.372231"
       id="path8" /><path
       d="m 255.66623,80.950672 -5.14133,0.01009"
       id="path9" /><path
       d="m 248.65189,109.06438 28.10362,-0.37224 8.18915,-8.00301 v -8.933602 l -1.67505,-1.302819 h -2.41954 v 2.605635 h -29.77866"
       id="path11" /><path
       d="m 225.4834,66.206065 -46.53564,0.03544"
       id="path13" /><path
       d="m 208.16599,107.40682 -54.91324,-0.48393"
       id="path14" /><path
       d="m 218.43144,81.062226 -50.205,-0.297659"
       id="path15" /><path
       d="m 161.52913,80.566129 -7.04457,-0.09922"
       id="path16" /><path
       d="m 155.47675,92.323625 53.08237,0.446487"
       id="path19" /><path
       d="m 112.45307,106.64867 -4.04549,0.0586 -7.68058,-8.325516 0.17589,-8.618667 0.70356,-0.703564 2.93152,0.05863 0.35179,2.75563 7.50469,0.17589"
       id="path20" /><path
       d="m 129.04547,66.193704 -16.70966,-0.05863 -6.91838,6.859757 -0.0586,8.032361 1.46576,1.817542 2.46248,-0.234522 0.0586,-2.345214 12.37101,0.17589"
       id="path22" /><path
       d="m 104.52907,89.179489 5.65251,-2.891658 5.62463,0.130805"
       id="path24" /><path
       d="m 109.17962,82.539409 5.92896,3.748422"
       id="path25" /><path
       d="m 154.69895,86.462237 57.8595,0.47962"
       id="path26" /><path
       d="m 250.44836,87.203467 29.38756,0.305213 5.72081,-3.247469"
       id="path27" /><path
       d="m 275.60656,87.465079 5.30883,3.021597"
       id="path28" /></g></svg>
