<?xml version="1.0" encoding="UTF-8" standalone="no"?>
<!-- Created with Inkscape (http://www.inkscape.org/) -->

<svg
   width="204.09622mm"
   height="153.0549mm"
   viewBox="0 0 204.09622 153.0549"
   version="1.1"
   id="svg1"
   xml:space="preserve"
   xmlns="http://www.w3.org/2000/svg"
   xmlns:svg="http://www.w3.org/2000/svg"><defs
     id="defs1" /><g
     id="layer1"
     transform="translate(-3.708335,-1.2118163)"><path
       d="m 15.519477,121.72589 c 0,0 -3.578952,-0.98436 -4.836309,-1.60415 -1.311268,-0.64637 -2.5995465,-1.40782 -3.6328016,-2.40924 -0.610403,-0.59159 -1.1148848,-1.30234 -1.4531205,-2.06506 -0.9107271,-2.05367 -1.2096246,-4.32377 -1.4531207,-6.53936 -0.2006507,-1.82574 -0.2951651,-3.69264 0,-5.50683 0.3675706,-2.25921 0.6926392,-4.739231 2.1796809,-6.539359 1.5743731,-1.905847 4.2296759,-2.751514 6.5390429,-3.785944 2.665879,-1.19412 5.468826,-2.182637 8.355444,-2.753416 4.636686,-0.916826 9.431454,-1.000323 14.167927,-1.032531 3.882449,-0.0264 7.791927,0.102789 11.624965,0.688354 2.348769,0.358817 4.579828,1.232099 6.902323,1.720883 2.643299,0.556301 5.300546,1.097264 7.992164,1.37671 3.132006,0.325166 6.29511,0.286798 9.445283,0.344175 3.147848,0.05733 6.304779,-0.211452 9.445287,0 2.562316,0.172523 5.138885,0.434431 7.628882,1.032531 3.379637,0.811792 6.519536,2.345707 9.808566,3.441768 4.69606,1.564952 7.72057,3.209479 12.38822,4.848989 2.69884,0.94797 6.98902,2.02627 9.77187,2.72291 3.65943,0.91606 7.4786,1.26215 11.26169,1.3767 3.75977,0.11384 7.55856,-0.0619 11.26168,-0.68835 4.60149,-0.77845 9.08235,-2.18717 13.44136,-3.78595 3.63651,-1.33379 7.38513,-2.640725 10.53513,-4.818474 2.69845,-1.865567 4.93944,-4.322702 6.90233,-6.883536 1.94214,-2.533771 3.53981,-5.336232 4.72264,-8.260246 1.11416,-2.754242 1.81387,-5.675268 2.17967,-8.604422 0.41263,-3.303996 0.34604,-6.670277 0,-9.981129 -0.30421,-2.910706 -0.86407,-5.822113 -1.81639,-8.604422 -0.98615,-2.881144 -2.33352,-5.673194 -3.99608,-8.260246 -1.83923,-2.861957 -3.92264,-5.661609 -6.53904,-7.916067 -2.65901,-2.291162 -5.89925,-3.924711 -9.08201,-5.506829 -3.60458,-1.791802 -7.36115,-3.371157 -11.26168,-4.474299 -3.18618,-0.901112 -5.96451,-1.528279 -9.25477,-1.983229 -3.37427,-0.466567 -5.3831,-0.521419 -8.78731,-0.332947 -2.72734,0.150996 -7.27589,0.671976 -9.9305,1.283645 -3.28195,0.75622 -6.58401,1.456846 -9.80857,2.409238 -5.04709,1.490689 -9.92788,3.446373 -14.894483,5.162653 -2.663106,0.920274 -5.234762,2.130428 -7.992163,2.753414 -2.965887,0.670088 -6.038386,0.860134 -9.082006,1.03253 -2.417551,0.136934 -4.853182,-0.202466 -7.265602,0 -3.430816,0.287937 -6.795576,1.075763 -10.171845,1.720886 -4.866836,0.929935 -14.531208,3.097592 -14.531208,3.097592 l 0.09531,45.517448"
       id="path1" /><path
       d="M 19.403782,44.032782 19.281163,90.501133"
       id="path2" /><path
       d="M 46.114233,44.341587 45.69732,38.663613 c 0,0 -1.575779,-1.554142 -2.553591,-2.073695 -1.178685,-0.626286 -2.531686,-0.932011 -3.856448,-1.184968 -1.418422,-0.270841 -2.878794,-0.319437 -4.325473,-0.345615 -1.51263,-0.02737 -3.028196,0.05808 -4.533929,0.197493 -1.398596,0.129492 -2.844799,0.147209 -4.169132,0.592485 -1.159572,0.389879 -2.19376,1.079107 -3.178963,1.777453 -1.161236,0.823125 -1.443791,0.885328 -2.429182,1.893471 -0.226727,0.231963 -1.166694,1.562686 -1.166694,1.562686 l -0.08645,2.970984"
       id="path3" /><path
       d="m 23.110949,114.15604 c 0,0 -5.51847,4.76448 -7.609974,7.65627 -0.951634,1.31576 -1.507719,2.85409 -2.179138,4.31678 -0.264083,0.57531 -0.603165,1.13534 -0.72638,1.75174 -1.069005,5.34783 0,16.32869 0,16.32869 0,0 4.928094,3.77137 7.593968,5.38034 2.3173,1.39859 4.654012,2.8772 7.263795,3.69116 1.605545,0.50075 3.331878,0.58429 5.018623,0.68818 1.581642,0.0974 3.173024,0.0374 4.754485,-0.0626 1.106009,-0.07 2.241587,-0.0686 3.301725,-0.37537 4.848756,-1.40288 13.882186,-8.69428 13.882186,-8.69428 l -0.08097,-13.20243 c 0,0 -1.352232,-3.7089 -2.17914,-5.50546 -0.668909,-1.45329 -1.514649,-2.8278 -2.245172,-4.25422 -0.5416,-1.05753 -1.022789,-2.14276 -1.58483,-3.19067 -0.727373,-1.35616 -2.311208,-4.00397 -2.311208,-4.00397"
       id="path4" /><path
       id="path5"
       d="m 32.549304,143.11856 a 9.4745102,9.1937752 0 0 1 -7.518092,-10.76132 9.4745102,9.1937752 0 0 1 11.088884,-7.2968 9.4745102,9.1937752 0 0 1 7.521142,10.75931 9.4745102,9.1937752 0 0 1 -11.086815,7.29976" /><path
       d="m 19.32186,44.486388 c 0,0 -1.586651,-0.439414 -2.358693,-0.716777 C 15.82661,43.361293 14.678055,42.954054 13.625395,42.378221 12.908497,41.986059 12.268603,41.477409 11.62273,40.986828 10.884523,40.426114 10.173672,39.832216 9.486556,39.215965 8.8390059,38.6352 8.1463468,38.083042 7.6174031,37.402941 7.137024,36.785283 6.8016254,36.074846 6.4603085,35.379097 6.1177915,34.680901 5.8582073,33.948727 5.5702359,33.228765 5.3407383,32.654994 5.0643764,32.094221 4.9026813,31.500066 4.6852961,30.701275 4.5625242,29.877519 4.5021485,29.05459 c -0.067898,-0.925468 -0.038368,-1.858411 0.044504,-2.782784 0.057177,-0.637761 0.1539289,-1.274954 0.3115254,-1.897353 0.2112055,-0.834117 0.4551065,-1.671561 0.8455693,-2.445475 0.6938368,-1.375214 1.5974756,-2.664556 2.6257146,-3.836869 0.7712301,-0.879294 1.6838022,-1.646519 2.6257142,-2.36115 1.018051,-0.772398 2.098762,-1.483069 3.248765,-2.066005 0.891461,-0.451882 1.843444,-0.796579 2.803729,-1.096249 1.859011,-0.580129 3.759332,-1.083989 5.696466,-1.349228 1.396027,-0.191149 2.817834,-0.132392 4.227845,-0.168653 3.648226,-0.09383 7.305261,-0.339578 10.947894,-0.126491 1.315017,0.07693 2.618073,0.293231 3.91632,0.505961 1.493638,0.244746 2.98511,0.517631 4.450367,0.885431 1.265236,0.317592 2.492036,0.759431 3.738302,1.138411 1.156941,0.351817 2.31149,0.710806 3.471284,1.054085 1.021262,0.302276 2.031068,0.646073 3.070751,0.885431 0.879319,0.202439 1.784087,0.290064 2.670219,0.463797 0.969056,0.189991 1.917202,0.47501 2.892736,0.632452 1.324249,0.21372 2.665036,0.336133 4.005327,0.421633 1.243639,0.07934 2.49185,0.08479 3.738306,0.08432 1.810361,-6.69e-4 3.622086,-0.02772 5.429444,-0.12649 0.654324,-0.03576 1.317239,-0.03881 1.95816,-0.168653 1.027614,-0.208193 2.001651,-0.610617 2.981744,-0.969759 1.431579,-0.524584 2.817489,-1.154831 4.227845,-1.728699 3.572416,-1.453603 7.167307,-2.857981 10.725378,-4.3428281 1.610044,-0.6719002 3.178115,-1.4347759 4.806393,-2.066006 2.236919,-0.86718 4.510429,-1.6534959 6.809059,-2.3611496 2.42048,-0.7451677 4.88359,-1.3617398 7.3431,-1.9816794 1.43251,-0.361076 2.86477,-0.7296429 4.31685,-1.0119211 0.80988,-0.1574356 1.6281,-0.276649 2.4477,-0.3794705 1.01993,-0.1279547 2.04351,-0.2408987 3.07074,-0.2951436 2.88841,-0.1525264 5.78533,-0.085167 8.67822,-0.084327 1.36485,3.963e-4 2.73423,-0.065682 4.09433,0.042163 1.61621,0.1281511 3.62938,0.317234 5.23359,0.5433219 2.32618,0.3278378 4.24989,0.6828866 6.55988,1.1010503 1.60445,0.2904452 3.18659,0.6868637 4.76188,1.0962478 1.46622,0.3810382 2.92356,0.796675 4.36137,1.2649018 3.37922,1.1004516 6.71319,2.3278744 10.01331,3.6260512 1.47177,0.5789536 2.94021,1.1720733 4.36135,1.8551893 1.55228,0.746151 3.0867,1.536969 4.53938,2.445476 1.16626,0.729379 2.22249,1.605569 3.33777,2.403313 1.5983,1.143239 3.27989,2.187082 4.80639,3.415235 1.53548,1.235376 2.98465,2.570104 4.36136,3.963358 1.32406,1.339947 2.54892,2.767456 3.7383,4.216338 1.35725,1.653368 2.69681,3.327557 3.87182,5.101772 1.88396,2.844684 3.56705,5.814364 5.07341,8.85431 0.71294,1.438738 1.27625,2.940331 1.86916,4.427155 0.65668,1.646739 1.34096,3.287559 1.86915,4.97528 0.48994,1.565495 0.86625,3.162811 1.2016,4.764463 0.29517,1.409732 0.58765,2.82614 0.71206,4.2585 0.17154,1.975054 0.0331,3.963338 0.0445,5.945039 0.0214,3.738458 0.22314,7.480778 0.0445,11.21546 -0.0998,2.087206 -0.16249,4.196908 -0.62305,6.240182 -0.4154,1.842898 -0.92653,3.530583 -1.4256,5.35475 -0.9017,3.295833 -1.5337,5.714076 -3.26893,8.551015 -0.7348,1.201347 -1.64399,3.000521 -2.28542,4.248951 -0.75385,1.46723 -1.66627,2.74299 -2.72332,4.03137 -0.91255,1.11227 -1.61473,2.01212 -2.31271,2.98546 -0.74082,1.03308 -1.58529,2.00284 -2.4922,2.90927 -1.5824,1.58151 -3.34988,2.99111 -5.11792,4.38499 -1.46421,1.15434 -3.02014,2.2001 -4.53938,3.28874 -1.87648,1.34462 -3.66783,2.80761 -5.65196,4.00552 -1.7463,1.05432 -3.60654,1.93501 -5.47394,2.78279 -1.43868,0.65313 -2.91643,1.22939 -4.40586,1.77086 -3.57403,1.2993 -7.16961,2.57382 -10.85889,3.54172 -2.96659,0.7783 -5.99712,1.338 -9.03424,1.81303 -2.47629,0.38731 -4.97308,0.67528 -7.47661,0.84327 -5.16568,0.34661 -10.35744,0.53709 -15.53176,0.33731 -1.56486,-0.0604 -3.13194,-0.19872 -4.67289,-0.4638 -1.79488,-0.30875 -3.55168,-0.80096 -5.29593,-1.30707 -3.02367,-0.87735 -5.99914,-1.90483 -8.94524,-2.99359 -3.02147,-1.11663 -5.974519,-2.39322 -8.945228,-3.62606 -2.591026,-1.07526 -5.135005,-2.25238 -7.743633,-3.28875 -1.953621,-0.77614 -3.919317,-1.52991 -5.918982,-2.19248 -1.231299,-0.40798 -2.488061,-0.74378 -3.738307,-1.09626 -1.138623,-0.32101 -2.256506,-0.73406 -3.426781,-0.92759 -1.303562,-0.21557 -2.638881,-0.19677 -3.960821,-0.25298 -1.98633,-0.0845 -3.97705,-0.20858 -5.96349,-0.12649 -1.490985,0.0616 -2.98169,0.21266 -4.450363,0.4638 -1.370255,0.2343 -2.70551,0.6261 -4.049829,0.96976 -1.609275,0.41137 -3.224207,0.81023 -4.806393,1.30706 -0.917987,0.28825 -2.714721,0.96976 -2.714721,0.96976"
       id="path6" /><path
       d="m 45.934288,42.696718 c 0,0 1.20108,-0.952598 1.734391,-1.6006 0.484636,-0.58886 0.815932,-1.214454 0.965084,-1.947672 0.121186,-0.595738 0.01283,-1.772213 -0.283044,-2.310278 -0.484854,-0.881735 -0.626237,-1.078448 -1.284828,-1.71584 -0.695079,-0.672706 -1.574074,-1.261485 -2.43656,-1.728912 -0.986606,-0.534693 -2.10123,-0.832557 -3.190702,-1.139491 -1.113483,-0.313699 -2.249169,-0.58379 -3.402833,-0.712789 -1.429442,-0.159836 -2.87813,-0.0591 -4.317437,-0.07104 -1.177699,-0.0098 -2.357595,-0.06722 -3.53323,-4.85e-4 -1.255048,0.07124 -2.501547,0.249934 -3.744847,0.427188 -1.180601,0.168315 -2.383652,0.270458 -3.524522,0.603805 -0.967704,0.282752 -1.912095,0.66954 -2.774732,1.172097 -0.741008,0.431698 -1.432953,0.956081 -2.023919,1.560854 -0.395691,0.404937 -0.783558,0.846533 -0.995537,1.360516 -0.175049,0.424443 -0.201381,0.89824 -0.199645,1.353931 0.0016,0.427477 0.03517,0.869739 0.196957,1.268791 0.166761,0.411306 0.450506,0.783014 0.773289,1.100212 0.26719,0.262567 0.610865,0.445903 0.937236,0.639324 0.156425,0.09271 0.487362,0.248628 0.487362,0.248628"
       id="path7" /><path
       d="m 45.964279,114.70295 c 0,0 -2.758083,-1.14133 -4.221497,-1.42592 -1.537244,-0.29893 -3.12999,-0.23802 -4.698709,-0.27822 -1.467862,-0.0376 -2.937269,-0.006 -4.405044,0.0348 -1.22463,0.0338 -2.453531,0.043 -3.670866,0.17389 -2.012902,0.21645 -5.983516,1.00858 -5.983516,1.00858"
       id="path8" /></g></svg>
