<?xml version="1.0" encoding="UTF-8" standalone="no"?>
<!-- Created with Inkscape (http://www.inkscape.org/) -->

<svg
   width="199.88556mm"
   height="10.068877mm"
   viewBox="0 0 199.88556 10.068877"
   version="1.1"
   id="svg1"
   xmlns="http://www.w3.org/2000/svg"
   xmlns:svg="http://www.w3.org/2000/svg">
  <defs
     id="defs1" />
  <g
     id="layer1"
     transform="translate(-3.3783583,-19.654979)">
    <path
       d="m 3.3867524,19.783636 c 0,0 67.1110916,4.378569 100.7173376,4.424505 33.07985,0.04521 99.15179,-4.084159 99.15179,-4.084159 v 0"
       id="path1" />
    <path
       d="m 24.64171,21.146052 1.925972,0.854262 2.609382,3.743219 -0.170853,0.512557 -0.341704,0.372769 -0.465961,0.108724 -3.991733,-3.277258 z"
       id="path2" />
    <path
       d="m 25.231928,24.283523 0.807665,-0.264045 0.636814,-0.357237 0.295108,-0.279576 0.232981,-0.419365"
       id="path4" />
    <path
       d="m 26.350234,25.199913 0.652345,-0.217449 0.528089,-0.388301 0.186385,-0.201916 0.186384,-0.372769"
       id="path5" />
    <path
       d="m 27.530668,26.131834 0.497025,-0.372768 0.232981,-0.341705 0.264044,-0.543621"
       id="path6" />
    <path
       d="m 24.22429,23.447923 0.592457,-0.122156 0.604673,-0.225989 0.519163,-0.268744 0.378684,-0.384791 0.225988,-0.415331"
       id="path7" />
    <path
       d="m 24.297584,23.313551 0.293175,-0.403115 0.390899,-0.397007 0.561918,-0.317606 0.470301,-0.152695 0.476408,-0.07329"
       id="path8" />
    <path
       d="m 191.34384,20.975232 1.92597,0.854262 2.55299,3.856013 -0.18966,0.512557 -0.36049,0.316372 -0.65395,0.202719 -3.70976,-3.42765 z"
       id="path2-0" />
    <path
       d="m 191.84007,24.112703 0.90165,-0.264045 0.63682,-0.357237 0.29511,-0.279576 0.23298,-0.419365"
       id="path4-3" />
    <path
       d="m 192.86438,25.08549 0.84033,-0.273846 0.52809,-0.388301 0.18638,-0.201916 0.20519,-0.278774"
       id="path5-9" />
    <path
       d="m 193.96961,26.073808 0.76021,-0.485562 0.23299,-0.341705 0.24524,-0.430827"
       id="path6-8" />
    <path
       d="m 190.92642,23.277103 0.59246,-0.122156 0.60467,-0.225989 0.51916,-0.268744 0.37869,-0.384791 0.22599,-0.415331"
       id="path7-6" />
    <path
       d="m 190.99972,23.142731 0.29317,-0.403115 0.3909,-0.397007 0.56192,-0.317606 0.4703,-0.152695 0.47641,-0.07329"
       id="path8-5" />
    <path
       d="m 71.763944,23.406323 -1.006769,1.411749 1.473479,4.5878 0.629997,0.114545 0.744542,-0.139764 0.343636,-0.361758 -0.757575,-4.659003 -1.422993,-0.96016"
       id="path9" />
    <path
       d="m 70.786236,24.87156 0.62411,0.05116 0.62411,-0.01023 0.347863,-0.07162 0.419484,-0.173932 0.378558,-0.225089 v 0"
       id="path10" />
    <path
       d="m 73.094415,24.350447 -0.644573,-0.03069 -0.480869,0.07162 -0.368327,0.112545 -0.296709,0.112544 -0.399021,0.163701"
       id="path11" />
    <path
       d="m 71.169944,25.966682 0.603166,0.0754 0.581625,-0.06462 0.52777,-0.193875 0.409292,-0.290813"
       id="path12" />
    <path
       d="m 71.622318,27.334577 0.646251,0.08617 0.581624,-0.04308 0.516998,-0.269272 0.215419,-0.280041"
       id="path13" />
    <path
       d="m 71.977757,28.573222 0.452374,0.08617 0.527769,-0.03231 0.441606,-0.140021 0.409292,-0.333895"
       id="path14" />
    <path
       d="m 126.30985,23.866911 -0.58083,1.688208 2.99748,4.021861 0.51508,-0.135251 0.41082,-0.273779 0.38734,-0.524837 -2.02285,-4.228278 -1.71837,-0.53886"
       id="path9-1" />
    <path
       d="m 128.16929,28.802974 0.41109,-0.11928 0.38621,-0.164946 0.34905,-0.284179 0.29971,-0.490439"
       id="path14-5" />
    <path
       d="m 125.8929,25.621578 0.55982,-0.107687 0.7432,-0.272507 0.45832,-0.346828 0.32205,-0.445922"
       id="path15" />
    <path
       d="m 127.95152,24.498181 -0.68127,0.04955 -0.54502,0.210574 -0.54501,0.284895 -0.36988,0.445565"
       id="path16" />
    <path
       d="m 126.58655,26.658269 0.63416,-0.215374 0.52024,-0.235348 0.39637,-0.297281 0.35922,-0.483082"
       id="path17" />
    <path
       d="m 127.39311,27.707703 0.69467,-0.261484 0.38398,-0.210574 0.30966,-0.297281 0.21058,-0.359215"
       id="path18" />
  </g>
</svg>
