<?xml version="1.0" encoding="UTF-8" standalone="no"?>
<svg
   width="183.98611mm"
   height="101.194mm"
   viewBox="0 0 183.98611 101.194"
   version="1.1"
   id="svg1"
   xml:space="preserve"
   xmlns="http://www.w3.org/2000/svg"
   xmlns:svg="http://www.w3.org/2000/svg"><defs
     id="defs1" /><g
     id="layer1"
     transform="translate(-12.410639,-11.673106)"><path
       style="fill:none;stroke:#060606;stroke-width:0.365001;stroke-opacity:1"
       d="m 40.90218,11.855705 c 7.981278,0.06205 33.894687,0.544639 49.497567,3.853103 5.368137,1.13827 10.698323,2.456846 16.005203,3.853104 3.47792,0.915052 6.96525,1.81698 10.37374,2.963927 3.61691,1.217082 7.15055,2.674402 10.67013,4.149497 1.99839,0.837546 3.87586,1.971606 5.92786,2.667532 3.26802,1.108333 6.65593,1.921423 10.07735,2.37114 3.234,0.425081 6.51921,0.274864 9.78095,0.296395 11.56075,0.07631 23.16389,-1.633621 34.67794,-0.592786 1.00345,0.09071 2.08716,0.09637 2.96392,0.592786 1.27809,0.723642 2.2608,1.970827 2.96393,3.260317 0.73425,1.346573 1.13711,2.912905 1.18557,4.445889 0.0637,2.014077 -0.66836,3.980278 -1.18557,5.927855 -0.24057,0.905876 -0.73904,1.742359 -0.88918,2.667531 -0.18991,1.170262 -0.2057,2.389122 0,3.556712 0.40128,2.277714 1.81656,4.275323 2.37114,6.520638 0.52602,2.129661 0.85359,4.327264 0.88918,6.520637 0.0467,2.88004 -0.60935,5.333557 -1.51103,8.069204 -0.79033,2.397767 -1.82594,4.413686 -3.47042,6.329298 -0.91464,1.065435 -1.92639,2.505728 -3.02115,3.385054 -10.20136,8.193866 -19.77832,17.291225 -30.82483,24.304192 -1.86507,1.18406 -3.87714,2.1423 -5.92785,2.96393 -2.49479,0.99956 -5.05636,1.92238 -7.70621,2.37114 -2.63189,0.44571 -5.3342,0.36797 -8.0026,0.29639 -2.18172,-0.0585 -14.05307,-3.50111 -16.08579,-4.2957 -5.18379,-2.02634 -10.06775,-3.51411 -12.85843,-4.32364 C 96.074331,101.5534 93.342855,102.302 82.447127,100.84714 74.765519,99.946226 61.428881,98.593828 54.128509,96.623991 50.969225,95.771531 44.908801,93.539854 42.087752,91.88171 39.67716,90.464822 37.251677,89.058228 34.974328,87.435821 32.285023,85.519933 29.507437,83.638187 27.268119,81.211575 23.941543,77.606768 21.265602,73.393871 18.969127,69.05948 17.328561,65.963058 16.114008,62.637586 15.116023,59.278522 13.995816,55.508078 13.142103,51.632435 12.744882,47.71921 c -0.209525,-2.064141 -0.194968,-4.158677 0,-6.224244 0.198473,-2.102704 0.620987,-4.189055 1.185571,-6.224246 0.534764,-1.927697 1.15714,-3.853823 2.074748,-5.631458 1.043286,-2.021104 2.427209,-3.859419 3.853104,-5.63146 1.445932,-1.796942 2.942085,-3.596797 4.742282,-5.038675 2.420136,-1.938422 5.154703,-3.515899 8.002601,-4.742282 2.642434,-1.137904 5.449773,-1.972093 8.298992,-2.37114 z"
       id="path1" /><path
       style="fill:none;stroke:#060606;stroke-width:0.365001;stroke-opacity:1"
       d="m 42.680538,30.52844 c 6.682131,-0.723053 13.459188,0.0064 20.154696,0.592785 4.078234,0.35717 8.1061,1.15429 12.152098,1.778355 3.65998,0.564524 7.339211,1.032218 10.966526,1.778357 0.797997,0.164148 1.641071,0.231199 2.37114,0.592783 1.133788,0.561536 2.108905,1.438546 2.963926,2.371143 0.722184,0.787707 1.263098,1.731295 1.778358,2.667532 0.469158,0.852469 0.931244,1.728315 1.185568,2.667534 0.233834,0.863551 0.346577,1.774293 0.296395,2.667535 -0.426172,7.585819 -1.626475,15.440986 -5.038675,22.229444 -0.818151,1.627684 -2.268549,2.861335 -3.556712,4.149498 -1.288162,1.288162 -2.631838,2.549023 -4.149497,3.556711 -1.840432,1.222001 -3.855895,2.197459 -5.927852,2.963926 -2.2923,0.847977 -4.675456,1.605094 -7.113423,1.778355 -2.873172,0.20419 -5.76161,-0.372923 -8.595387,-0.889177 C 58.258067,79.085326 56.371871,78.58228 54.536241,77.951258 52.40159,77.217443 50.209414,76.506433 48.311995,75.283723 45.725488,73.61696 43.607134,71.297083 41.494966,69.05948 40.09687,67.578355 38.768493,66.013991 37.641863,64.317197 36.71282,62.917984 35.997373,61.385538 35.27072,59.871308 34.619659,58.514598 34.027155,57.128416 33.492365,55.72181 32.937216,54.261657 32.394171,52.790173 32.010403,51.275921 31.59141,49.622679 31.222791,47.93973 31.121225,46.237247 31.015158,44.45931 30.960466,42.623611 31.417617,40.90218 c 0.510323,-1.921654 1.586768,-3.666195 2.667534,-5.335066 0.763273,-1.178612 1.52627,-2.442253 2.667532,-3.26032 0.783684,-0.561752 4.686151,-1.643993 5.927855,-1.778354 z"
       id="path2" /><circle
       style="fill:none;stroke:#060606;stroke-width:0.537185;stroke-opacity:1"
       id="path3"
       cx="172.05591"
       cy="65.058174"
       r="23.773512" /><circle
       style="fill:none;stroke:#060606;stroke-width:0.365001;stroke-opacity:1"
       id="path4"
       cx="172.79689"
       cy="65.799164"
       r="5.9278526" /><circle
       style="fill:none;stroke:#060606;stroke-width:0.365001;stroke-opacity:1"
       id="path5"
       r="11.110064"
       cy="78.028816"
       cx="129.70354" /></g></svg>
